<svg viewBox="0 0 900 600" xmlns="http://www.w3.org/2000/svg" fill="none">
  <rect width="900" height="600" fill="white"/>
  <g stroke="#00ccbb" stroke-width="4" stroke-linecap="round" opacity="0.95">
    <!-- input -> hidden -->
    <line x1="180" y1="170" x2="400" y2="100"/>
    <line x1="180" y1="170" x2="400" y2="250"/>
    <line x1="180" y1="170" x2="400" y2="400"/>
    <line x1="180" y1="170" x2="400" y2="550"/>
    <line x1="180" y1="300" x2="400" y2="100"/>
    <line x1="180" y1="300" x2="400" y2="250"/>
    <line x1="180" y1="300" x2="400" y2="400"/>
    <line x1="180" y1="300" x2="400" y2="550"/>
    <line x1="180" y1="470" x2="400" y2="100"/>
    <line x1="180" y1="470" x2="400" y2="250"/>
    <line x1="180" y1="470" x2="400" y2="400"/>
    <line x1="180" y1="470" x2="400" y2="550"/>
    <!-- hidden -> output -->
    <line x1="450" y1="100" x2="700" y2="215"/>
    <line x1="450" y1="100" x2="700" y2="385"/>
    <line x1="450" y1="250" x2="700" y2="215"/>
    <line x1="450" y1="250" x2="700" y2="385"/>
    <line x1="450" y1="400" x2="700" y2="215"/>
    <line x1="450" y1="400" x2="700" y2="385"/>
    <line x1="450" y1="550" x2="700" y2="215"/>
    <line x1="450" y1="550" x2="700" y2="385"/>
  </g>
  <g fill="#00ccbb">
    <circle cx="180" cy="170" r="38"/>
    <circle cx="180" cy="300" r="38"/>
    <circle cx="180" cy="470" r="38"/>
    <circle cx="450" cy="100" r="38"/>
    <circle cx="450" cy="250" r="38"/>
    <circle cx="450" cy="400" r="38"/>
    <circle cx="450" cy="550" r="38"/>
    <circle cx="700" cy="215" r="38"/>
    <circle cx="700" cy="385" r="38"/>
  </g>
</svg>
